<svg width="1200" height="1200" viewBox="0 0 1200 1200" fill="none" xmlns="http://www.w3.org/2000/svg">
<rect width="1200" height="1200" rx="600" fill="black"/>
<mask id="path-2-inside-1" fill="white">
<path fill-rule="evenodd" clip-rule="evenodd" d="M889.49 862.499C894.412 879.206 881.153 895 863.736 895H335.791C318.374 895 305.115 879.206 310.037 862.499C346.912 737.349 462.67 646 599.764 646C736.857 646 852.615 737.349 889.49 862.499Z"/>
</mask>
<path d="M889.49 862.499L941.288 847.237L889.49 862.499ZM310.037 862.499L258.239 847.237L258.239 847.237L310.037 862.499ZM335.791 949H863.736V841H335.791V949ZM361.836 877.761C392.128 774.953 487.263 700 599.764 700V592C438.077 592 301.696 699.745 258.239 847.237L361.836 877.761ZM599.764 700C712.264 700 807.4 774.953 837.691 877.761L941.288 847.237C897.831 699.745 761.45 592 599.764 592V700ZM863.736 949C912.662 949 957.654 902.782 941.288 847.237L837.691 877.761C834.796 867.936 837.503 857.866 842.984 851.081C848.193 844.633 855.868 841 863.736 841V949ZM335.791 841C343.659 841 351.334 844.633 356.543 851.081C362.024 857.866 364.731 867.936 361.836 877.761L258.239 847.237C241.873 902.781 286.865 949 335.791 949V841Z" fill="#3C31B6" mask="url(#path-2-inside-1)"/>
<path fill-rule="evenodd" clip-rule="evenodd" d="M674.763 675.742C674.763 663.765 666.663 653.191 654.885 651.019C637.013 647.723 618.589 646 599.764 646C462.67 646 346.912 737.349 310.037 862.499C305.115 879.206 318.374 895 335.791 895H647.763C662.674 895 674.763 882.912 674.763 868V868C674.763 853.088 662.674 841 647.763 841H533.14C460.277 841 418.568 763.675 482.792 729.264C517.649 710.588 557.48 700 599.764 700C613.451 700 626.88 701.109 639.968 703.243C657.464 706.096 674.763 693.469 674.763 675.742V675.742Z" fill="#21FFF2"/>
<path fill-rule="evenodd" clip-rule="evenodd" d="M506.763 699.129C506.763 680.095 488.164 666.642 470.953 674.77C393.771 711.22 334.519 779.41 310.037 862.499C305.115 879.206 318.374 895 335.791 895H479.763C494.674 895 506.763 882.912 506.763 868V868C506.763 853.088 494.674 841 479.763 841H456.213C419.009 841 395.745 802.148 421.638 775.433C441.184 755.267 464.123 738.412 489.53 725.786C499.761 720.702 506.763 710.553 506.763 699.129V699.129Z" fill="#832BF4"/>
<circle cx="600" cy="451" r="119.5" stroke="#832BF4" stroke-width="53"/>
<path fill-rule="evenodd" clip-rule="evenodd" d="M627.547 362.147C645.481 367.701 675 355.49 675 336.715V336.715C675 329.888 671.462 323.471 665.359 320.411C645.695 310.55 623.496 305 600 305C519.366 305 454 370.366 454 451C454 531.634 519.366 597 600 597C623.496 597 645.695 591.45 665.359 581.589C671.462 578.529 675 572.112 675 565.285V565.285C675 546.51 645.481 534.299 627.547 539.853C618.842 542.548 609.591 544 600 544C548.638 544 507 502.362 507 451C507 399.638 548.638 358 600 358C609.591 358 618.842 359.452 627.547 362.147Z" fill="#5F3E89"/>
<path fill-rule="evenodd" clip-rule="evenodd" d="M635 328.597C635 317.325 627.317 307.109 616.112 305.879C610.821 305.298 605.445 305 600 305C519.366 305 454 370.366 454 451C454 531.634 519.366 597 600 597C605.445 597 610.821 596.702 616.112 596.121C627.317 594.891 635 584.675 635 573.403V573.403C635 556.263 617.14 544 600 544V544C548.638 544 507 502.362 507 451C507 399.638 548.638 358 600 358V358C617.14 358 635 345.737 635 328.597V328.597Z" fill="#547AFF"/>
<path fill-rule="evenodd" clip-rule="evenodd" d="M560 348.793C560 329.616 541.449 315.843 525.004 325.708C482.468 351.224 454 397.787 454 451C454 504.212 482.468 550.776 525.004 576.292C541.449 586.157 560 572.384 560 553.207V553.207C560 542.073 553.347 532.235 544.424 525.574C521.708 508.618 507 481.526 507 451C507 420.473 521.708 393.382 544.424 376.426C553.347 369.765 560 359.927 560 348.793V348.793Z" fill="#2CD7CC"/>
</svg>
