<svg width="1200" height="1200" viewBox="0 0 1200 1200" fill="none" xmlns="http://www.w3.org/2000/svg">
<path d="M0 600C0 268.629 268.629 0 600 0V0C931.371 0 1200 268.629 1200 600V600C1200 931.371 931.371 1200 600 1200V1200C268.629 1200 0 931.371 0 600V600Z" fill="black"/>
<rect x="532.284" y="172.154" width="169.625" height="672.568" rx="84.8124" transform="rotate(30 532.284 172.154)" fill="#2187FF"/>
<rect x="532.284" y="172.154" width="169.625" height="386.807" rx="84.8124" transform="rotate(30 532.284 172.154)" fill="#14BED6"/>
<rect x="856.901" y="359.572" width="169.625" height="672.568" rx="84.8124" transform="rotate(30 856.901 359.572)" fill="#21FFF2"/>
<rect x="856.901" y="359.572" width="169.625" height="385.407" rx="84.8124" transform="rotate(30 856.901 359.572)" fill="#7521FF"/>
<rect x="856.901" y="359.572" width="169.625" height="169.62" rx="84.81" transform="rotate(30 856.901 359.572)" fill="#4D21FF"/>
<rect x="756.867" y="158" width="169.625" height="921.668" rx="84.8124" transform="rotate(30 756.867 158)" fill="#832BF4"/>
<rect x="628.533" y="380.282" width="169.625" height="664.999" rx="84.8124" transform="rotate(30 628.533 380.282)" fill="#2CD7CC"/>
<rect x="507.007" y="590.771" width="169.625" height="421.947" rx="84.8124" transform="rotate(30 507.007 590.771)" fill="#3C31B6"/>
</svg>
