<svg width="4227" height="1200" viewBox="0 0 4227 1200" fill="none" xmlns="http://www.w3.org/2000/svg">
<path d="M0 600C0 268.629 268.629 0 600 0V0C931.371 0 1200 268.629 1200 600V600C1200 931.371 931.371 1200 600 1200V1200C268.629 1200 0 931.371 0 600V600Z" fill="black"/>
<rect x="532.284" y="172.154" width="169.625" height="672.568" rx="84.8124" transform="rotate(30 532.284 172.154)" fill="#2187FF"/>
<rect x="532.284" y="172.154" width="169.625" height="386.807" rx="84.8124" transform="rotate(30 532.284 172.154)" fill="#14BED6"/>
<rect x="856.901" y="359.572" width="169.625" height="672.568" rx="84.8124" transform="rotate(30 856.901 359.572)" fill="#21FFF2"/>
<rect x="856.901" y="359.572" width="169.625" height="385.407" rx="84.8124" transform="rotate(30 856.901 359.572)" fill="#7521FF"/>
<rect x="856.901" y="359.572" width="169.625" height="169.62" rx="84.81" transform="rotate(30 856.901 359.572)" fill="#4D21FF"/>
<rect x="756.867" y="158" width="169.625" height="921.668" rx="84.8124" transform="rotate(30 756.867 158)" fill="#832BF4"/>
<rect x="628.533" y="380.282" width="169.625" height="664.999" rx="84.8124" transform="rotate(30 628.533 380.282)" fill="#2CD7CC"/>
<rect x="507.007" y="590.771" width="169.625" height="421.947" rx="84.8124" transform="rotate(30 507.007 590.771)" fill="#3C31B6"/>
<path d="M1580.5 826L1441 467.5C1441.4 474.5 1442.2 486.5 1443.4 503.5C1444.8 520.3 1446.1 539.7 1447.3 561.7C1448.5 583.5 1449.1 605.3 1449.1 627.1V826H1395.1V412.6H1474L1615 772C1614.6 765.2 1613.7 753.9 1612.3 738.1C1610.9 722.1 1609.6 703.2 1608.4 681.4C1607.4 659.6 1606.9 636.3 1606.9 611.5V412.6H1660.9V826H1580.5ZM1811.57 687.4C1813.17 722.2 1822.57 747.5 1839.77 763.3C1857.17 779.1 1877.77 787 1901.57 787C1917.37 787 1931.87 784.6 1945.07 779.8C1958.27 775 1971.67 768 1985.27 758.8L2011.37 795.1C1996.57 806.9 1979.47 816.3 1960.07 823.3C1940.67 830.1 1920.57 833.5 1899.77 833.5C1868.17 833.5 1841.27 826.6 1819.07 812.8C1797.07 798.8 1780.27 779.4 1768.67 754.6C1757.27 729.8 1751.57 701 1751.57 668.2C1751.57 636.4 1757.27 608 1768.67 583C1780.27 558 1796.57 538.3 1817.57 523.9C1838.57 509.5 1863.57 502.3 1892.57 502.3C1933.37 502.3 1965.47 516.3 1988.87 544.3C2012.47 572.1 2024.27 610.2 2024.27 658.6C2024.27 664 2024.17 669.2 2023.97 674.2C2023.77 679.2 2023.47 683.6 2023.07 687.4H1811.57ZM1893.17 547.3C1870.57 547.3 1851.87 555.3 1837.07 571.3C1822.27 587.3 1813.77 612 1811.57 645.4H1968.77C1968.17 613.4 1961.17 589.1 1947.77 572.5C1934.57 555.7 1916.37 547.3 1893.17 547.3ZM2381.63 809.8C2370.43 817 2356.93 822.7 2341.13 826.9C2325.53 831.3 2309.73 833.5 2293.73 833.5C2258.53 833.5 2231.53 824.3 2212.73 805.9C2194.13 787.5 2184.83 763.6 2184.83 734.2V553H2113.13V509.8H2184.83V438.4L2242.43 431.5V509.8H2350.43L2343.83 553H2242.43V733.6C2242.43 751 2246.83 764.1 2255.63 772.9C2264.63 781.7 2279.53 786.1 2300.33 786.1C2311.93 786.1 2322.63 784.8 2332.43 782.2C2342.43 779.4 2351.63 775.7 2360.03 771.1L2381.63 809.8ZM3040.56 826V633.4H2893.56V826H2834.16V412.6H2893.56V584.5H3040.56V412.6H3099.96V826H3040.56ZM3250.63 687.4C3252.23 722.2 3261.63 747.5 3278.83 763.3C3296.23 779.1 3316.83 787 3340.63 787C3356.43 787 3370.93 784.6 3384.13 779.8C3397.33 775 3410.73 768 3424.33 758.8L3450.43 795.1C3435.63 806.9 3418.53 816.3 3399.13 823.3C3379.73 830.1 3359.63 833.5 3338.83 833.5C3307.23 833.5 3280.33 826.6 3258.13 812.8C3236.13 798.8 3219.33 779.4 3207.73 754.6C3196.33 729.8 3190.63 701 3190.63 668.2C3190.63 636.4 3196.33 608 3207.73 583C3219.33 558 3235.63 538.3 3256.63 523.9C3277.63 509.5 3302.63 502.3 3331.63 502.3C3372.43 502.3 3404.53 516.3 3427.93 544.3C3451.53 572.1 3463.33 610.2 3463.33 658.6C3463.33 664 3463.23 669.2 3463.03 674.2C3462.83 679.2 3462.53 683.6 3462.13 687.4H3250.63ZM3332.23 547.3C3309.63 547.3 3290.93 555.3 3276.13 571.3C3261.33 587.3 3252.83 612 3250.63 645.4H3407.83C3407.23 613.4 3400.23 589.1 3386.83 572.5C3373.63 555.7 3355.43 547.3 3332.23 547.3ZM3566.89 826V783.4H3614.89V552.4H3566.89V509.8H3658.99L3669.49 583.9C3681.49 557.7 3696.19 537.6 3713.59 523.6C3731.19 509.4 3753.99 502.3 3781.99 502.3C3791.19 502.3 3799.29 503 3806.29 504.4C3813.49 505.8 3820.79 507.6 3828.19 509.8L3819.19 620.8H3774.79V554.8H3774.49C3727.09 554.8 3693.09 588.7 3672.49 656.5V783.4H3736.69V826H3566.89ZM4046.96 502.3C4092.16 502.3 4126.46 517.3 4149.86 547.3C4173.46 577.3 4185.26 617.4 4185.26 667.6C4185.26 700.2 4179.86 729 4169.06 754C4158.46 779 4142.86 798.5 4122.26 812.5C4101.66 826.5 4076.36 833.5 4046.36 833.5C4001.16 833.5 3966.66 818.5 3942.86 788.5C3919.26 758.5 3907.46 718.4 3907.46 668.2C3907.46 635.4 3912.76 606.6 3923.36 581.8C3934.16 556.8 3949.86 537.3 3970.46 523.3C3991.26 509.3 4016.76 502.3 4046.96 502.3ZM4046.96 548.2C4020.96 548.2 4001.36 558 3988.16 577.6C3974.96 597 3968.36 627.2 3968.36 668.2C3968.36 708.8 3974.86 738.9 3987.86 758.5C4000.86 777.9 4020.36 787.6 4046.36 787.6C4072.36 787.6 4091.86 777.9 4104.86 758.5C4117.86 738.9 4124.36 708.6 4124.36 667.6C4124.36 626.8 4117.86 596.7 4104.86 577.3C4091.86 557.9 4072.56 548.2 4046.96 548.2Z" fill="white"/>
</svg>
